/* XPM */
static char *abd287d07aea4d98e6ac71e636e63e4e[] = {
/* columns rows colors chars-per-pixel */
"16 16 30 1 ",
"  c #525EAA",
". c #535FAA",
"X c #535FAB",
"o c #545FAB",
"O c #5460AB",
"+ c #5560AB",
"@ c #5561AB",
"# c #5661AC",
"$ c #5662AC",
"% c #5763AC",
"& c #5863AD",
"* c #5964AD",
"= c #6C7BB5",
"- c #6D7CB5",
"; c #6D7CB6",
": c #6E7DB6",
"> c #6F7DB6",
", c #6F7EB7",
"< c #707EB7",
"1 c #707FB7",
"2 c #7180B7",
"3 c #7180B8",
"4 c #7280B8",
"5 c #8693C1",
"6 c #8793C1",
"7 c #8794C2",
"8 c #8895C2",
"9 c #8996C3",
"0 c #8B98C4",
"q c None",
/* pixels */
"qqqqqqqqqqqqqqqq",
"qqqqqqqqqq-<qqqq",
"qqqqqqqqq--qqqqq",
"qq&%qqqqq-4qqqqq",
"qqqO%qqq,-qqq8qq",
"qqqq %qq;,qqq8qq",
"qqqq% q2=qqqq5qq",
"qqqqq%&4,qqqq7qq",
"qqqqq%qq4qqqq8qq",
"qqqq% q4;qqqq7qq",
"qqqqXoqq;<qqq8qq",
"qqq%Xqqq--qqq8qq",
"qq%%qqqqq-qqq0qq",
"qqqqqqqqq<-qqqqq",
"qqqqqqqqqq-4qqqq",
"qqqqqqqqqqqqqqqq"
};
