/* XPM */
static char *a9f95aba40894e95a6d70a4e6c8067ca[] = {
/* columns rows colors chars-per-pixel */
"64 64 120 2 ",
"   c #515EAA",
".  c #525EAA",
"X  c #535EAA",
"o  c #535FAA",
"O  c #535FAB",
"+  c #545FAB",
"@  c #5460AB",
"#  c #5560AB",
"$  c #5561AB",
"%  c #5561AC",
"&  c #5661AC",
"*  c #5662AC",
"=  c #5762AC",
"-  c #5763AC",
";  c #5763AD",
":  c #5863AD",
">  c #5864AD",
",  c #5964AD",
"<  c #5965AD",
"1  c #5965AE",
"2  c #5A65AE",
"3  c #5A66AE",
"4  c #5B66AE",
"5  c #5B67AF",
"6  c #5C68AF",
"7  c #5D68AF",
"8  c #5D69B0",
"9  c #5E69B0",
"0  c #5F6AB0",
"q  c #616BB1",
"w  c #616CB1",
"e  c #616CB2",
"r  c #626DB2",
"t  c #636EB2",
"y  c #636EB3",
"u  c #646EB3",
"i  c #646FB3",
"p  c #656FB3",
"a  c #6570B3",
"s  c #6570B4",
"d  c #6670B4",
"f  c #6671B4",
"g  c #6771B4",
"h  c #6872B5",
"j  c #6973B5",
"k  c #6A74B6",
"l  c #6B75B6",
"z  c #6C76B7",
"x  c #6B7AB5",
"c  c #6B7BB5",
"v  c #6C7BB5",
"b  c #6D7BB5",
"n  c #6D7CB5",
"m  c #6D7CB6",
"M  c #6E7CB6",
"N  c #6E7DB6",
"B  c #6F7DB6",
"V  c #6F7EB6",
"C  c #6F7EB7",
"Z  c #6E78B8",
"A  c #6F79B8",
"S  c #707EB7",
"D  c #707FB7",
"F  c #717FB7",
"G  c #7180B8",
"H  c #7280B8",
"J  c #7281B8",
"K  c #7381B8",
"L  c #7381B9",
"P  c #7382B9",
"I  c #7482B9",
"U  c #7583B9",
"Y  c #7583BA",
"T  c #7684BA",
"R  c #7784BA",
"E  c #7785BA",
"W  c #7785BB",
"Q  c #7885BB",
"!  c #7886BB",
"~  c #7986BB",
"^  c #7987BB",
"/  c #7987BC",
"(  c #7A87BC",
")  c #7A88BC",
"_  c #7B88BC",
"`  c #7B89BD",
"'  c #7C89BD",
"]  c #7C8ABD",
"[  c #7E8BBE",
"{  c #7F8CBF",
"}  c #828FC0",
"|  c #8390C1",
" . c #8693C1",
".. c #8793C1",
"X. c #8794C1",
"o. c #8794C2",
"O. c #8894C2",
"+. c #8895C2",
"@. c #8995C2",
"#. c #8996C3",
"$. c #8A96C3",
"%. c #8A97C3",
"&. c #8B97C3",
"*. c #8B97C4",
"=. c #8B98C4",
"-. c #8C98C4",
";. c #8C99C4",
":. c #8D99C5",
">. c #8D9AC5",
",. c #8E9AC5",
"<. c #8F9BC6",
"1. c #909CC6",
"2. c #919CC6",
"3. c #919DC6",
"4. c #919DC7",
"5. c #929EC7",
"6. c #939FC8",
"7. c #96A1C9",
"8. c #99A4CB",
"9. c None",
/* pixels */
"9.9.9.9.9.9.9.9.9.9.9.9.9.9.9.9.9.9.9.9.9.9.9.9.9.9.9.9.9.9.9.9.9.9.9.9.9.9.9.9.9.9.9.9.9.9.9.9.9.9.9.9.9.9.9.9.9.9.9.9.9.9.9.9.",
"9.9.9.9.9.9.9.9.9.9.9.9.9.9.9.9.9.9.9.9.9.9.9.9.9.9.9.9.9.9.9.9.9.9.9.9.9.9.9.9.9.9.9.9.9.9.9.9.9.9.9.9.9.9.9.9.9.9.9.9.9.9.9.9.",
"9.9.9.9.9.9.9.9.9.9.9.9.9.9.9.9.9.9.9.9.9.9.9.9.9.9.9.9.9.9.9.9.9.9.9.9.9.9.9.9.9.9.9.9.9.9.9.9.9.9.9.9.9.9.9.9.9.9.9.9.9.9.9.9.",
"9.9.9.9.9.9.9.9.9.9.9.9.9.9.9.9.9.9.9.9.9.9.9.9.9.9.9.9.9.9.9.9.9.9.9.9.9.9.9.9.9.9.9.n W 9.9.9.9.9.9.9.9.9.9.9.9.9.9.9.9.9.9.9.",
"9.9.9.9.9.9.9.9.9.9.9.9.9.9.9.9.9.9.9.9.9.9.9.9.9.9.9.9.9.9.9.9.9.9.9.9.9.9.9.9.9.9.C v v U 9.9.9.9.9.9.9.9.9.9.9.9.9.9.9.9.9.9.",
"9.9.9.9.9.9.9.9.9.9.9.9.9.9.9.9.9.9.9.9.9.9.9.9.9.9.9.9.9.9.9.9.9.9.9.9.9.9.9.9.9.n c v v n H 9.9.9.9.9.9.9.9.9.9.9.9.9.9.9.9.9.",
"9.9.9.9.9.9.9.9.9.9.9.9.9.9.9.9.9.9.9.9.9.9.9.9.9.9.9.9.9.9.9.9.9.9.9.9.9.9.9.9.F v v v v v U 9.9.9.9.9.9.9.9.9.9.9.9.9.9.9.9.9.",
"9.9.9.9.9.9.9.9.9.9.9.9.9.9.9.9.9.9.9.9.9.9.9.9.9.9.9.9.9.9.9.9.9.9.9.9.9.9.9.S v v v v c F 9.9.9.9.9.9.9.9.9.9.9.9.9.9.9.9.9.9.",
"9.9.9.9.9.9.9.9.9.9.9.9.9.9.9.9.9.9.9.9.9.9.9.9.9.9.9.9.9.9.9.9.9.9.9.9.9.9.U v v v v v C 9.9.9.9.9.9.9.9.9.9.9.9.9.9.9.9.9.9.9.",
"9.9.9.9.9.9.9.9.9.9.9.9.9.9.9.9.9.9.9.9.9.9.9.9.9.9.9.9.9.9.9.9.9.9.9.9.9./ n v v v v v / 9.9.9.9.9.9.9.9.9.9.9.9.9.9.9.9.9.9.9.",
"9.9.9.9.9.9.9.9.9.9.9.9.9.9.9.9.9.9.9.9.9.9.9.9.9.9.9.9.9.9.9.9.9.9.9.9.9.n v v v v v H 9.9.9.9.9.9.9.9.9.9.9.9.9.9.9.9.9.9.9.9.",
"9.9.9.9.9.9.9.9.Z d 9.9.9.9.9.9.9.9.9.9.9.9.9.9.9.9.9.9.9.9.9.9.9.9.9.9.F v v v v v n 9.9.9.9.9.9.9.9.9.9.9.9.9.9.9.9.9.9.9.9.9.",
"9.9.9.9.9.9.9.9.p   $ r 9.9.9.9.9.9.9.9.9.9.9.9.9.9.9.9.9.9.9.9.9.9.9./ v v v v v v U 9.9.9.9.9.9.9.9.9.9.3.3.9.9.9.9.9.9.9.9.9.",
"9.9.9.9.9.9.9.9.a +   + 1 9.9.9.9.9.9.9.9.9.9.9.9.9.9.9.9.9.9.9.9.9.9.n v v v v v F 9.9.9.9.9.9.9.9.9.9.9.&.%.9.9.9.9.9.9.9.9.9.",
"9.9.9.9.9.9.9.9.a     +   + q 9.9.9.9.9.9.9.9.9.9.9.9.9.9.9.9.9.9.9.U v v v v v v / 9.9.9.9.9.9.9.9.9.9.9.O.O.9.9.9.9.9.9.9.9.9.",
"9.9.9.9.9.9.9.9.j +   +       1 9.9.9.9.9.9.9.9.9.9.9.9.9.9.9.9.9.| n v v v v v F 9.9.9.9.9.9.9.9.9.9.9.3.O.| 6.9.9.9.9.9.9.9.9.",
"9.9.9.9.9.9.9.9.9.r $       +   + p 9.9.9.9.9.9.9.9.9.9.9.9.9.9.9.T v v v v v v / 9.9.9.9.9.9.9.9.9.9.9.=.| X.>.9.9.9.9.9.9.9.9.",
"9.9.9.9.9.9.9.9.9.9.9.1   +       + 7 9.9.9.9.9.9.9.9.9.9.9.9.9.9.n v v v v v C 9.9.9.9.9.9.9.9.9.9.9.9.X.X.X.&.9.9.9.9.9.9.9.9.",
"9.9.9.9.9.9.9.9.9.9.9.9.$   + +   X X r 9.9.9.9.9.9.9.9.9.9.9.9.T v v v v v v T 9.9.9.9.9.9.9.9.9.9.9.6.| X.X.O.9.9.9.9.9.9.9.9.",
"9.9.9.9.9.9.9.9.9.9.9.9.9.:     + X X X r 9.9.9.9.9.9.9.9.9.9.9.C v v v v v n 9.9.9.9.9.9.9.9.9.9.9.9.>.X.X.X.X.9.9.9.9.9.9.9.9.",
"9.9.9.9.9.9.9.9.9.9.9.9.9.9.:   +         r 9.9.9.9.9.9.9.9.9./ v v v v v v H 9.9.9.9.9.9.9.9.9.9.9.9.&.X.X.X.| 3.9.9.9.9.9.9.9.",
"9.9.9.9.9.9.9.9.9.9.9.9.9.9.k + X   + +   + p 9.9.9.9.9.9.9.9.F v v v v v v / 9.9.9.9.9.9.9.9.9.9.9.9.O.| X.X.X.3.9.9.9.9.9.9.9.",
"9.9.9.9.9.9.9.9.9.9.9.9.9.9.9.r X X     +   * 9.9.9.9.9.9.9.9.S v v v v v n 9.9.9.9.9.9.9.9.9.9.9.9.9.O.X.| X.| %.9.9.9.9.9.9.9.",
"9.9.9.9.9.9.9.9.9.9.9.9.9.9.9.9.$ X +         7 9.9.9.9.9.9./ v v v v v n S 9.9.9.9.9.9.9.9.9.9.9.9.3.| X.X.X.X.*.9.9.9.9.9.9.9.",
"9.9.9.9.9.9.9.9.9.9.9.9.9.9.9.9.h +       X     k 9.9.9.9.9.T v v v v v v T 9.9.9.9.9.9.9.9.9.9.9.9.3.O.| X.| X.%.9.9.9.9.9.9.9.",
"9.9.9.9.9.9.9.9.9.9.9.9.9.9.9.9.9.1 +   X   X   7 9.9.9.9.9.H v v v v v v / 9.9.9.9.9.9.9.9.9.9.9.9.>.| X.X.X.X.%.9.9.9.9.9.9.9.",
"9.9.9.9.9.9.9.9.9.9.9.9.9.9.9.9.9.p       X   X $ 9.9.9.9.9.S v v v v v n [ 9.9.9.9.9.9.9.9.9.9.9.9.>.X.X.X.| X.| 9.9.9.9.9.9.9.",
"9.9.9.9.9.9.9.9.9.9.9.9.9.9.9.9.9.9.+ + X   X     r 9.9.9.9.n v v v v v n 9.9.9.9.9.9.9.9.9.9.9.9.9.X.X.X.| X.X.O.9.9.9.9.9.9.9.",
"9.9.9.9.9.9.9.9.9.9.9.9.9.9.9.9.9.9.1 +     X X   1 9.9.9.9.n v v v v v S 9.9.9.9.9.9.9.9.9.9.9.9.9.=.| | X.X.X.O.9.9.9.9.9.9.9.",
"9.9.9.9.9.9.9.9.9.9.9.9.9.9.9.9.9.9.7     + X X   * 9.9.9.} v v v v v c U 9.9.9.9.9.9.9.9.9.9.9.9.9.>.O.X.X.X.| O.9.9.9.9.9.9.9.",
"9.9.9.9.9.9.9.9.9.9.9.9.9.9.9.9.9.9.r       + X + + 9.9.9./ v n v v c c H 9.9.9.9.9.9.9.9.9.9.9.9.9.>.| | X.X.| X.9.9.9.9.9.9.9.",
"9.9.9.9.9.9.9.9.9.9.9.9.9.9.9.9.9.9.a   +   X X + + 9.9.9.U S S H H U U T 9.9.9.9.9.9.9.9.9.9.9.9.9.3.O.X.X.O.X.X.9.9.9.9.9.9.9.",
"9.9.9.9.9.9.9.9.9.9.9.9.9.9.9.9.9.9.+   $ r h z 9.9.9.9.9.9.9.9.9.9.9.9.9.9.9.9.9.9.9.9.9.9.9.9.9.9.9.9.9.9.8.7.>.9.9.9.9.9.9.9.",
"9.9.9.9.9.9.9.9.9.9.9.9.9.9.9.9.9.9.:   @ 7 7 r k 1 9.9.9.9.9.9.9.9.9.9.9.9.9.9.9.9.9.9.9.9.9.9.9.9.9.=.&.7.>.>.=.9.9.9.9.9.9.9.",
"9.9.9.9.9.9.9.9.9.9.9.9.9.9.9.9.9.9.j         X   * 9.9.9.| n v n n C v U 9.9.9.9.9.9.9.9.9.9.9.9.9.O.X.| X.| X.X.9.9.9.9.9.9.9.",
"9.9.9.9.9.9.9.9.9.9.9.9.9.9.9.9.9.9.0       X X   * 9.9.9.9.n v v v v c U 9.9.9.9.9.9.9.9.9.9.9.9.9.>.| X.X.X.X.O.9.9.9.9.9.9.9.",
"9.9.9.9.9.9.9.9.9.9.9.9.9.9.9.9.9.9.7     + X X   : 9.9.9.9.n v v v v v C 9.9.9.9.9.9.9.9.9.9.9.9.9.3.| X.X.| X.O.9.9.9.9.9.9.9.",
"9.9.9.9.9.9.9.9.9.9.9.9.9.9.9.9.9.9.$     + X X   q 9.9.9.9.F v v v v v C 9.9.9.9.9.9.9.9.9.9.9.9.9.;.O.O.| X.X.X.9.9.9.9.9.9.9.",
"9.9.9.9.9.9.9.9.9.9.9.9.9.9.9.9.9.p +       +   $ 9.9.9.9.9.F v v v v v n 9.9.9.9.9.9.9.9.9.9.9.9.9.3.| X.X.X.X.&.9.9.9.9.9.9.9.",
"9.9.9.9.9.9.9.9.9.9.9.9.9.9.9.9.9.: +   +       1 9.9.9.9.9.T c v v v v v ` 9.9.9.9.9.9.9.9.9.9.9.9.6.X.X.| X.| O.9.9.9.9.9.9.9.",
"9.9.9.9.9.9.9.9.9.9.9.9.9.9.9.9.k $ +     X X X h 9.9.9.9.9.[ c v v v v v W 9.9.9.9.9.9.9.9.9.9.9.9.9.X.X.| X.| >.9.9.9.9.9.9.9.",
"9.9.9.9.9.9.9.9.9.9.9.9.9.9.9.9.1       + X   = 9.9.9.9.9.9.9.n v v v v n H 9.9.9.9.9.9.9.9.9.9.9.9.9.X.X.X.X.X.>.9.9.9.9.9.9.9.",
"9.9.9.9.9.9.9.9.9.9.9.9.9.9.9.d +   + +   + + a 9.9.9.9.9.9.9.U v v v v v n 9.9.9.9.9.9.9.9.9.9.9.9.9.>.X.| X.X.1.9.9.9.9.9.9.9.",
"9.9.9.9.9.9.9.9.9.9.9.9.9.9.9.*             0 9.9.9.9.9.9.9.9.` v v v v v v / 9.9.9.9.9.9.9.9.9.9.9.9.>.X.X.| X.3.9.9.9.9.9.9.9.",
"9.9.9.9.9.9.9.9.9.9.9.9.9.9.* X   + +   + 7 9.9.9.9.9.9.9.9.9.9.C v v v v v H 9.9.9.9.9.9.9.9.9.9.9.9.3.| O.X.X.9.9.9.9.9.9.9.9.",
"9.9.9.9.9.9.9.9.9.9.9.9.9.1   X         $ 9.9.9.9.9.9.9.9.9.9.9.U v v v v v n 9.9.9.9.9.9.9.9.9.9.9.9.9.X.X.X.X.9.9.9.9.9.9.9.9.",
"9.9.9.9.9.9.9.9.9.9.9.9.1   X X +     $ 9.9.9.9.9.9.9.9.9.9.9.9.9.C v v v v v W 9.9.9.9.9.9.9.9.9.9.9.9.O.X.| O.9.9.9.9.9.9.9.9.",
"9.9.9.9.9.9.9.9.9.9.9.1   + X X +   * 9.9.9.9.9.9.9.9.9.9.9.9.9.9.H v v v v v F 9.9.9.9.9.9.9.9.9.9.9.9.>.X.O.>.9.9.9.9.9.9.9.9.",
"9.9.9.9.9.9.9.9.9.r $   + +       7 9.9.9.9.9.9.9.9.9.9.9.9.9.9.9.[ C v v v v v [ 9.9.9.9.9.9.9.9.9.9.9.3.X.| 3.9.9.9.9.9.9.9.9.",
"9.9.9.9.9.9.9.9.k + +         + 9 9.9.9.9.9.9.9.9.9.9.9.9.9.9.9.9.9.U v v v v v H 9.9.9.9.9.9.9.9.9.9.9.9.O.O.9.9.9.9.9.9.9.9.9.",
"9.9.9.9.9.9.9.9.d @         = j 9.9.9.9.9.9.9.9.9.9.9.9.9.9.9.9.9.9.9.n v v v v n ` 9.9.9.9.9.9.9.9.9.9.9.O.O.9.9.9.9.9.9.9.9.9.",
"9.9.9.9.9.9.9.9.d @     + 7 9.9.9.9.9.9.9.9.9.9.9.9.9.9.9.9.9.9.9.9.9.W v v v v n n 9.9.9.9.9.9.9.9.9.9.9.>.=.9.9.9.9.9.9.9.9.9.",
"9.9.9.9.9.9.9.9.a + + 1 p 9.9.9.9.9.9.9.9.9.9.9.9.9.9.9.9.9.9.9.9.9.9.9.F c v v c v T 9.9.9.9.9.9.9.9.9.9.9.6.9.9.9.9.9.9.9.9.9.",
"9.9.9.9.9.9.9.9.h 1 7 9.9.9.9.9.9.9.9.9.9.9.9.9.9.9.9.9.9.9.9.9.9.9.9.9.` C v v v v n 9.9.9.9.9.9.9.9.9.9.9.9.9.9.9.9.9.9.9.9.9.",
"9.9.9.9.9.9.9.9.9.9.9.9.9.9.9.9.9.9.9.9.9.9.9.9.9.9.9.9.9.9.9.9.9.9.9.9.9.W v v v v n H 9.9.9.9.9.9.9.9.9.9.9.9.9.9.9.9.9.9.9.9.",
"9.9.9.9.9.9.9.9.9.9.9.9.9.9.9.9.9.9.9.9.9.9.9.9.9.9.9.9.9.9.9.9.9.9.9.9.9.9.H v v v n n T 9.9.9.9.9.9.9.9.9.9.9.9.9.9.9.9.9.9.9.",
"9.9.9.9.9.9.9.9.9.9.9.9.9.9.9.9.9.9.9.9.9.9.9.9.9.9.9.9.9.9.9.9.9.9.9.9.9.9.9.F v v v v n [ 9.9.9.9.9.9.9.9.9.9.9.9.9.9.9.9.9.9.",
"9.9.9.9.9.9.9.9.9.9.9.9.9.9.9.9.9.9.9.9.9.9.9.9.9.9.9.9.9.9.9.9.9.9.9.9.9.9.9.` n c v v c F 9.9.9.9.9.9.9.9.9.9.9.9.9.9.9.9.9.9.",
"9.9.9.9.9.9.9.9.9.9.9.9.9.9.9.9.9.9.9.9.9.9.9.9.9.9.9.9.9.9.9.9.9.9.9.9.9.9.9.9.~ n v c v v H 9.9.9.9.9.9.9.9.9.9.9.9.9.9.9.9.9.",
"9.9.9.9.9.9.9.9.9.9.9.9.9.9.9.9.9.9.9.9.9.9.9.9.9.9.9.9.9.9.9.9.9.9.9.9.9.9.9.9.9.~ v n v v n { 9.9.9.9.9.9.9.9.9.9.9.9.9.9.9.9.",
"9.9.9.9.9.9.9.9.9.9.9.9.9.9.9.9.9.9.9.9.9.9.9.9.9.9.9.9.9.9.9.9.9.9.9.9.9.9.9.9.9.9.H c n G 9.9.9.9.9.9.9.9.9.9.9.9.9.9.9.9.9.9.",
"9.9.9.9.9.9.9.9.9.9.9.9.9.9.9.9.9.9.9.9.9.9.9.9.9.9.9.9.9.9.9.9.9.9.9.9.9.9.9.9.9.9.9.` H 9.9.9.9.9.9.9.9.9.9.9.9.9.9.9.9.9.9.9.",
"9.9.9.9.9.9.9.9.9.9.9.9.9.9.9.9.9.9.9.9.9.9.9.9.9.9.9.9.9.9.9.9.9.9.9.9.9.9.9.9.9.9.9.9.9.9.9.9.9.9.9.9.9.9.9.9.9.9.9.9.9.9.9.9.",
"9.9.9.9.9.9.9.9.9.9.9.9.9.9.9.9.9.9.9.9.9.9.9.9.9.9.9.9.9.9.9.9.9.9.9.9.9.9.9.9.9.9.9.9.9.9.9.9.9.9.9.9.9.9.9.9.9.9.9.9.9.9.9.9."
};
