/* XPM */
static char *_98da7e9beb74c9dc01aac2a187cc03b[] = {
/* columns rows colors chars-per-pixel */
"32 32 56 1 ",
"  c #525EAA",
". c #535FAA",
"X c #535FAB",
"o c #5460AB",
"O c #5560AB",
"+ c #5561AB",
"@ c #5561AC",
"# c #5662AC",
"$ c #5762AC",
"% c #5863AD",
"& c #5864AD",
"* c #5964AD",
"= c #5965AD",
"- c #5965AE",
"; c #5A65AE",
": c #5A66AE",
"> c #5B66AE",
", c #5B67AF",
"< c #5C67AF",
"1 c #5D68AF",
"2 c #5E69B0",
"3 c #616CB1",
"4 c #6C7BB5",
"5 c #6D7BB5",
"6 c #6D7CB5",
"7 c #6D7CB6",
"8 c #6E7CB6",
"9 c #6E7DB6",
"0 c #6F7DB6",
"q c #6F7EB6",
"w c #6F7EB7",
"e c #707EB7",
"r c #707FB7",
"t c #717FB7",
"y c #7180B8",
"u c #7280B8",
"i c #7281B8",
"p c #7381B9",
"a c #7482B9",
"s c #7483B9",
"d c #7583B9",
"f c #7583BA",
"g c #8693C1",
"h c #8794C1",
"j c #8794C2",
"k c #8895C2",
"l c #8996C3",
"z c #8A96C3",
"x c #8A97C3",
"c c #8B97C4",
"v c #8B98C4",
"b c #8C98C4",
"n c #8C99C4",
"m c #8D99C5",
"M c #8F9BC5",
"N c None",
/* pixels */
"NNNNNNNNNNNNNNNNNNNNNNNNNNNNNNNN",
"NNNNNNNNNNNNNNNNNNNNNNNNNNNNNNNN",
"NNNNNNNNNNNNNNNNNNNNNwwNNNNNNNNN",
"NNNNNNNNNNNNNNNNNNNN54wNNNNNNNNN",
"NNNNNNNNNNNNNNNNNNNw55aNNNNNNNNN",
"NNNNNNNNNNNNNNNNNNw45rNNNNNNNNNN",
"NNNN;+NNNNNNNNNNNa54wNNNNNNNNNNN",
"NNNN;XX;NNNNNNNNNw54rNNNNNxxNNNN",
"NNNNN%XX+NNNNNNNu44wNNNNNNxhNNNN",
"NNNNNN+XX+NNNNNNw44uNNNNNNhhNNNN",
"NNNNNNN;XX$NNNNNw45NNNNNNbghNNNN",
"NNNNNNNNXXX;NNNu44wNNNNNNxggNNNN",
"NNNNNNNN;X XNNNw44wNNNNNNxggbNNN",
"NNNNNNNNNXXX;NNw44uNNNNNNxggbNNN",
"NNNNNNNNN$XX$NNw44dNNNNNNxggxNNN",
"NNNNNNNNN%XXoNNwwuNNNNNNNxhhhNNN",
"NNNNNNNNN+;13NNNNNNNNNNNNNbMbNNN",
"NNNNNNNNN+XX$NNww4NNNNNNNxggvNNN",
"NNNNNNNNN$XX$NNw44uNNNNNNxggvNNN",
"NNNNNNNNNXXX;NNr4wuNNNNNNxggbNNN",
"NNNNNNNN%XXXNNNu44wNNNNNNvggNNNN",
"NNNNNNN2XXX;NNNN54wNNNNNNNghNNNN",
"NNNNNNNXXX&NNNNNw44yNNNNNNhhNNNN",
"NNNNNNX X$NNNNNNuw4wNNNNNNhxNNNN",
"NNNN1XXX;NNNNNNNNw4wNNNNNNvxNNNN",
"NNNN;X+NNNNNNNNNNu44rNNNNNNbNNNN",
"NNNN;;NNNNNNNNNNNNr55aNNNNNNNNNN",
"NNNNNNNNNNNNNNNNNNNw4wNNNNNNNNNN",
"NNNNNNNNNNNNNNNNNNNNw4wNNNNNNNNN",
"NNNNNNNNNNNNNNNNNNNNu5wuNNNNNNNN",
"NNNNNNNNNNNNNNNNNNNNNauNNNNNNNNN",
"NNNNNNNNNNNNNNNNNNNNNNNNNNNNNNNN"
};
